# xmcd
#
# Track frame offsets:
#	150
#	26839
#	50920
#	68231
#	86472
#	103929
#	123622
#	138618
#	157507
#	179245
#
# Disc length: 2644 seconds
#
# Revision: 1
# Processed by: cddbd v1.5.2PL0 Copyright (c) Steve Scherf et al.
# Submitted via: EZCDAudioConverter 7.1.5.1
#
DISCID=930a520a
DTITLE=铁竹堂
DYEAR=2003
DGENRE=
TTITLE0=和平世界
TTITLE1=为了兄弟
TTITLE2=风暴
TTITLE3=信仰
TTITLE4=Money! Money!
TTITLE5=你杀不了我
TTITLE6=In Da Club
TTITLE7=心魔
TTITLE8=能不能
TTITLE9=隔离
EXTD=
EXTT0=
EXTT1=
EXTT2=
EXTT3=
EXTT4=
EXTT5=
EXTT6=
EXTT7=
EXTT8=
EXTT9=
PLAYORDER=
